<svg xmlns="http://www.w3.org/2000/svg" width="900" height="760" viewBox="0 0 900 760"><rect width="100%" height="100%" fill="#ffffff"/><style>text{font-family:Arial,"Microsoft YaHei",sans-serif;fill:#1f2937}.small{font-size:12px}.label{font-size:14px}.title{font-size:22px;font-weight:700}</style><text class="title" x="130" y="36">最优模型混淆矩阵</text><text class="small" x="158.0" y="68" text-anchor="middle">F0</text><text class="small" x="214.0" y="68" text-anchor="middle">F1</text><text class="small" x="270.0" y="68" text-anchor="middle">F2</text><text class="small" x="326.0" y="68" text-anchor="middle">F3</text><text class="small" x="382.0" y="68" text-anchor="middle">F4</text><text class="small" x="438.0" y="68" text-anchor="middle">F5</text><text class="small" x="494.0" y="68" text-anchor="middle">F6</text><text class="small" x="550.0" y="68" text-anchor="middle">F7</text><text class="small" x="606.0" y="68" text-anchor="middle">F8</text><text class="small" x="118" y="112.0" text-anchor="end">F0</text><text class="small" x="118" y="168.0" text-anchor="end">F1</text><text class="small" x="118" y="224.0" text-anchor="end">F2</text><text class="small" x="118" y="280.0" text-anchor="end">F3</text><text class="small" x="118" y="336.0" text-anchor="end">F4</text><text class="small" x="118" y="392.0" text-anchor="end">F5</text><text class="small" x="118" y="448.0" text-anchor="end">F6</text><text class="small" x="118" y="504.0" text-anchor="end">F7</text><text class="small" x="118" y="560.0" text-anchor="end">F8</text><rect x="130" y="80" width="56" height="56" fill="#e8eff5" stroke="#ffffff"/><text class="small" x="158.0" y="112.0" text-anchor="middle">40</text><rect x="186" y="80" width="56" height="56" fill="#f1f5f8" stroke="#ffffff"/><text class="small" x="214.0" y="112.0" text-anchor="middle">11</text><rect x="242" y="80" width="56" height="56" fill="#f2f5f9" stroke="#ffffff"/><text class="small" x="270.0" y="112.0" text-anchor="middle">8</text><rect x="298" y="80" width="56" height="56" fill="#f3f6f9" stroke="#ffffff"/><text class="small" x="326.0" y="112.0" text-anchor="middle">4</text><rect x="354" y="80" width="56" height="56" fill="#f4f6f9" stroke="#ffffff"/><text class="small" x="382.0" y="112.0" text-anchor="middle">3</text><rect x="410" y="80" width="56" height="56" fill="#f4f6f9" stroke="#ffffff"/><text class="small" x="438.0" y="112.0" text-anchor="middle">1</text><rect x="466" y="80" width="56" height="56" fill="#f5f7fa" stroke="#ffffff"/><text class="small" x="494.0" y="112.0" text-anchor="middle">0</text><rect x="522" y="80" width="56" height="56" fill="#f3f5f9" stroke="#ffffff"/><text class="small" x="550.0" y="112.0" text-anchor="middle">6</text><rect x="578" y="80" width="56" height="56" fill="#f5f7fa" stroke="#ffffff"/><text class="small" x="606.0" y="112.0" text-anchor="middle">0</text><rect x="130" y="136" width="56" height="56" fill="#edf3f7" stroke="#ffffff"/><text class="small" x="158.0" y="168.0" text-anchor="middle">22</text><rect x="186" y="136" width="56" height="56" fill="#a0c8db" stroke="#ffffff"/><text class="small" x="214.0" y="168.0" text-anchor="middle">261</text><rect x="242" y="136" width="56" height="56" fill="#eef3f7" stroke="#ffffff"/><text class="small" x="270.0" y="168.0" text-anchor="middle">20</text><rect x="298" y="136" width="56" height="56" fill="#f3f6f9" stroke="#ffffff"/><text class="small" x="326.0" y="168.0" text-anchor="middle">5</text><rect x="354" y="136" width="56" height="56" fill="#edf3f7" stroke="#ffffff"/><text class="small" x="382.0" y="168.0" text-anchor="middle">22</text><rect x="410" y="136" width="56" height="56" fill="#f3f6f9" stroke="#ffffff"/><text class="small" x="438.0" y="168.0" text-anchor="middle">4</text><rect x="466" y="136" width="56" height="56" fill="#f4f6f9" stroke="#ffffff"/><text class="small" x="494.0" y="168.0" text-anchor="middle">1</text><rect x="522" y="136" width="56" height="56" fill="#f0f4f8" stroke="#ffffff"/><text class="small" x="550.0" y="168.0" text-anchor="middle">14</text><rect x="578" y="136" width="56" height="56" fill="#ecf2f6" stroke="#ffffff"/><text class="small" x="606.0" y="168.0" text-anchor="middle">27</text><rect x="130" y="192" width="56" height="56" fill="#ecf2f7" stroke="#ffffff"/><text class="small" x="158.0" y="224.0" text-anchor="middle">25</text><rect x="186" y="192" width="56" height="56" fill="#dbe9f0" stroke="#ffffff"/><text class="small" x="214.0" y="224.0" text-anchor="middle">78</text><rect x="242" y="192" width="56" height="56" fill="#5ca3c2" stroke="#ffffff"/><text class="small" x="270.0" y="224.0" text-anchor="middle">470</text><rect x="298" y="192" width="56" height="56" fill="#ecf2f6" stroke="#ffffff"/><text class="small" x="326.0" y="224.0" text-anchor="middle">26</text><rect x="354" y="192" width="56" height="56" fill="#e8f0f5" stroke="#ffffff"/><text class="small" x="382.0" y="224.0" text-anchor="middle">39</text><rect x="410" y="192" width="56" height="56" fill="#f1f5f8" stroke="#ffffff"/><text class="small" x="438.0" y="224.0" text-anchor="middle">11</text><rect x="466" y="192" width="56" height="56" fill="#f4f6f9" stroke="#ffffff"/><text class="small" x="494.0" y="224.0" text-anchor="middle">1</text><rect x="522" y="192" width="56" height="56" fill="#e9f0f5" stroke="#ffffff"/><text class="small" x="550.0" y="224.0" text-anchor="middle">36</text><rect x="578" y="192" width="56" height="56" fill="#ddeaf1" stroke="#ffffff"/><text class="small" x="606.0" y="224.0" text-anchor="middle">71</text><rect x="130" y="248" width="56" height="56" fill="#f1f5f8" stroke="#ffffff"/><text class="small" x="158.0" y="280.0" text-anchor="middle">11</text><rect x="186" y="248" width="56" height="56" fill="#f1f5f8" stroke="#ffffff"/><text class="small" x="214.0" y="280.0" text-anchor="middle">10</text><rect x="242" y="248" width="56" height="56" fill="#f1f5f8" stroke="#ffffff"/><text class="small" x="270.0" y="280.0" text-anchor="middle">10</text><rect x="298" y="248" width="56" height="56" fill="#abcfdf" stroke="#ffffff"/><text class="small" x="326.0" y="280.0" text-anchor="middle">225</text><rect x="354" y="248" width="56" height="56" fill="#f1f5f8" stroke="#ffffff"/><text class="small" x="382.0" y="280.0" text-anchor="middle">11</text><rect x="410" y="248" width="56" height="56" fill="#f4f6f9" stroke="#ffffff"/><text class="small" x="438.0" y="280.0" text-anchor="middle">3</text><rect x="466" y="248" width="56" height="56" fill="#f5f7fa" stroke="#ffffff"/><text class="small" x="494.0" y="280.0" text-anchor="middle">0</text><rect x="522" y="248" width="56" height="56" fill="#f1f5f8" stroke="#ffffff"/><text class="small" x="550.0" y="280.0" text-anchor="middle">11</text><rect x="578" y="248" width="56" height="56" fill="#f1f5f8" stroke="#ffffff"/><text class="small" x="606.0" y="280.0" text-anchor="middle">11</text><rect x="130" y="304" width="56" height="56" fill="#f3f6f9" stroke="#ffffff"/><text class="small" x="158.0" y="336.0" text-anchor="middle">5</text><rect x="186" y="304" width="56" height="56" fill="#eef3f7" stroke="#ffffff"/><text class="small" x="214.0" y="336.0" text-anchor="middle">21</text><rect x="242" y="304" width="56" height="56" fill="#e6eff4" stroke="#ffffff"/><text class="small" x="270.0" y="336.0" text-anchor="middle">45</text><rect x="298" y="304" width="56" height="56" fill="#f3f6f9" stroke="#ffffff"/><text class="small" x="326.0" y="336.0" text-anchor="middle">4</text><rect x="354" y="304" width="56" height="56" fill="#c0dae6" stroke="#ffffff"/><text class="small" x="382.0" y="336.0" text-anchor="middle">161</text><rect x="410" y="304" width="56" height="56" fill="#f3f6f9" stroke="#ffffff"/><text class="small" x="438.0" y="336.0" text-anchor="middle">4</text><rect x="466" y="304" width="56" height="56" fill="#f3f6f9" stroke="#ffffff"/><text class="small" x="494.0" y="336.0" text-anchor="middle">4</text><rect x="522" y="304" width="56" height="56" fill="#eff3f7" stroke="#ffffff"/><text class="small" x="550.0" y="336.0" text-anchor="middle">17</text><rect x="578" y="304" width="56" height="56" fill="#f2f5f9" stroke="#ffffff"/><text class="small" x="606.0" y="336.0" text-anchor="middle">8</text><rect x="130" y="360" width="56" height="56" fill="#f4f6f9" stroke="#ffffff"/><text class="small" x="158.0" y="392.0" text-anchor="middle">1</text><rect x="186" y="360" width="56" height="56" fill="#eff3f7" stroke="#ffffff"/><text class="small" x="214.0" y="392.0" text-anchor="middle">17</text><rect x="242" y="360" width="56" height="56" fill="#f0f4f8" stroke="#ffffff"/><text class="small" x="270.0" y="392.0" text-anchor="middle">15</text><rect x="298" y="360" width="56" height="56" fill="#f5f7fa" stroke="#ffffff"/><text class="small" x="326.0" y="392.0" text-anchor="middle">0</text><rect x="354" y="360" width="56" height="56" fill="#f2f5f8" stroke="#ffffff"/><text class="small" x="382.0" y="392.0" text-anchor="middle">9</text><rect x="410" y="360" width="56" height="56" fill="#cfe2ec" stroke="#ffffff"/><text class="small" x="438.0" y="392.0" text-anchor="middle">114</text><rect x="466" y="360" width="56" height="56" fill="#f5f7fa" stroke="#ffffff"/><text class="small" x="494.0" y="392.0" text-anchor="middle">0</text><rect x="522" y="360" width="56" height="56" fill="#f3f6f9" stroke="#ffffff"/><text class="small" x="550.0" y="392.0" text-anchor="middle">4</text><rect x="578" y="360" width="56" height="56" fill="#f3f5f9" stroke="#ffffff"/><text class="small" x="606.0" y="392.0" text-anchor="middle">6</text><rect x="130" y="416" width="56" height="56" fill="#f5f7fa" stroke="#ffffff"/><text class="small" x="158.0" y="448.0" text-anchor="middle">0</text><rect x="186" y="416" width="56" height="56" fill="#f5f7fa" stroke="#ffffff"/><text class="small" x="214.0" y="448.0" text-anchor="middle">0</text><rect x="242" y="416" width="56" height="56" fill="#f5f7fa" stroke="#ffffff"/><text class="small" x="270.0" y="448.0" text-anchor="middle">0</text><rect x="298" y="416" width="56" height="56" fill="#f5f7fa" stroke="#ffffff"/><text class="small" x="326.0" y="448.0" text-anchor="middle">0</text><rect x="354" y="416" width="56" height="56" fill="#f4f6f9" stroke="#ffffff"/><text class="small" x="382.0" y="448.0" text-anchor="middle">1</text><rect x="410" y="416" width="56" height="56" fill="#f5f7fa" stroke="#ffffff"/><text class="small" x="438.0" y="448.0" text-anchor="middle">0</text><rect x="466" y="416" width="56" height="56" fill="#f1f4f8" stroke="#ffffff"/><text class="small" x="494.0" y="448.0" text-anchor="middle">12</text><rect x="522" y="416" width="56" height="56" fill="#f4f6f9" stroke="#ffffff"/><text class="small" x="550.0" y="448.0" text-anchor="middle">1</text><rect x="578" y="416" width="56" height="56" fill="#f4f6f9" stroke="#ffffff"/><text class="small" x="606.0" y="448.0" text-anchor="middle">2</text><rect x="130" y="472" width="56" height="56" fill="#f2f5f8" stroke="#ffffff"/><text class="small" x="158.0" y="504.0" text-anchor="middle">9</text><rect x="186" y="472" width="56" height="56" fill="#edf3f7" stroke="#ffffff"/><text class="small" x="214.0" y="504.0" text-anchor="middle">22</text><rect x="242" y="472" width="56" height="56" fill="#ebf1f6" stroke="#ffffff"/><text class="small" x="270.0" y="504.0" text-anchor="middle">29</text><rect x="298" y="472" width="56" height="56" fill="#f1f4f8" stroke="#ffffff"/><text class="small" x="326.0" y="504.0" text-anchor="middle">12</text><rect x="354" y="472" width="56" height="56" fill="#eef3f7" stroke="#ffffff"/><text class="small" x="382.0" y="504.0" text-anchor="middle">20</text><rect x="410" y="472" width="56" height="56" fill="#f3f6f9" stroke="#ffffff"/><text class="small" x="438.0" y="504.0" text-anchor="middle">5</text><rect x="466" y="472" width="56" height="56" fill="#f5f7fa" stroke="#ffffff"/><text class="small" x="494.0" y="504.0" text-anchor="middle">0</text><rect x="522" y="472" width="56" height="56" fill="#bdd8e5" stroke="#ffffff"/><text class="small" x="550.0" y="504.0" text-anchor="middle">171</text><rect x="578" y="472" width="56" height="56" fill="#f1f4f8" stroke="#ffffff"/><text class="small" x="606.0" y="504.0" text-anchor="middle">12</text><rect x="130" y="528" width="56" height="56" fill="#edf3f7" stroke="#ffffff"/><text class="small" x="158.0" y="560.0" text-anchor="middle">22</text><rect x="186" y="528" width="56" height="56" fill="#e2ecf3" stroke="#ffffff"/><text class="small" x="214.0" y="560.0" text-anchor="middle">58</text><rect x="242" y="528" width="56" height="56" fill="#dfebf2" stroke="#ffffff"/><text class="small" x="270.0" y="560.0" text-anchor="middle">67</text><rect x="298" y="528" width="56" height="56" fill="#e7eff4" stroke="#ffffff"/><text class="small" x="326.0" y="560.0" text-anchor="middle">43</text><rect x="354" y="528" width="56" height="56" fill="#f0f4f8" stroke="#ffffff"/><text class="small" x="382.0" y="560.0" text-anchor="middle">14</text><rect x="410" y="528" width="56" height="56" fill="#f3f6f9" stroke="#ffffff"/><text class="small" x="438.0" y="560.0" text-anchor="middle">4</text><rect x="466" y="528" width="56" height="56" fill="#f4f6f9" stroke="#ffffff"/><text class="small" x="494.0" y="560.0" text-anchor="middle">2</text><rect x="522" y="528" width="56" height="56" fill="#edf2f7" stroke="#ffffff"/><text class="small" x="550.0" y="560.0" text-anchor="middle">24</text><rect x="578" y="528" width="56" height="56" fill="#509dbe" stroke="#ffffff"/><text class="small" x="606.0" y="560.0" text-anchor="middle">508</text></svg>