<svg xmlns="http://www.w3.org/2000/svg" width="980" height="560" viewBox="0 0 980 560"><rect width="100%" height="100%" fill="#ffffff"/><style>text{font-family:Arial,"Microsoft YaHei",sans-serif;fill:#1f2937}.small{font-size:12px}.label{font-size:14px}.title{font-size:22px;font-weight:700}</style><text class="title" x="80" y="36">二级类目分布</text><line x1="80" y1="470" x2="940" y2="470" stroke="#374151"/><line x1="80" y1="70" x2="80" y2="470" stroke="#374151"/><text class="small" x="18" y="80">数量</text><rect x="80.0" y="431.0" width="84.9" height="39.0" fill="#2563eb"/><text class="small" x="122.4" y="425.0" text-anchor="middle">405</text><text class="small" x="122.4" y="494" text-anchor="middle">F0</text><rect x="176.9" y="276.5" width="84.9" height="193.5" fill="#2563eb"/><text class="small" x="219.3" y="270.5" text-anchor="middle">2009</text><text class="small" x="219.3" y="494" text-anchor="middle">F1</text><rect x="273.8" y="70.0" width="84.9" height="400.0" fill="#2563eb"/><text class="small" x="316.2" y="64.0" text-anchor="middle">4154</text><text class="small" x="316.2" y="494" text-anchor="middle">F2</text><rect x="370.7" y="325.0" width="84.9" height="145.0" fill="#2563eb"/><text class="small" x="413.1" y="319.0" text-anchor="middle">1506</text><text class="small" x="413.1" y="494" text-anchor="middle">F3</text><rect x="467.6" y="328.9" width="84.9" height="141.1" fill="#2563eb"/><text class="small" x="510.0" y="322.9" text-anchor="middle">1465</text><text class="small" x="510.0" y="494" text-anchor="middle">F4</text><rect x="564.4" y="391.3" width="84.9" height="78.7" fill="#2563eb"/><text class="small" x="606.9" y="385.3" text-anchor="middle">817</text><text class="small" x="606.9" y="494" text-anchor="middle">F5</text><rect x="661.3" y="464.5" width="84.9" height="5.5" fill="#2563eb"/><text class="small" x="703.8" y="458.5" text-anchor="middle">57</text><text class="small" x="703.8" y="494" text-anchor="middle">F6</text><rect x="758.2" y="325.0" width="84.9" height="145.0" fill="#2563eb"/><text class="small" x="800.7" y="319.0" text-anchor="middle">1506</text><text class="small" x="800.7" y="494" text-anchor="middle">F7</text><rect x="855.1" y="92.3" width="84.9" height="377.7" fill="#2563eb"/><text class="small" x="897.6" y="86.3" text-anchor="middle">3922</text><text class="small" x="897.6" y="494" text-anchor="middle">F8</text></svg>