<svg xmlns="http://www.w3.org/2000/svg" width="760" height="680" viewBox="0 0 760 680"><rect width="100%" height="100%" fill="#ffffff"/><style>text{font-family:Arial,"Microsoft YaHei",sans-serif;fill:#1f2937}.small{font-size:12px}.label{font-size:14px}.title{font-size:22px;font-weight:700}</style><text class="title" x="170" y="38">文本长度相关性热力图</text><text class="small" x="217.5" y="74" text-anchor="middle">title_len</text><text class="small" x="158" y="141.5" text-anchor="end">title_len</text><text class="small" x="312.5" y="74" text-anchor="middle">keyword_len</text><text class="small" x="158" y="236.5" text-anchor="end">keyword_len</text><text class="small" x="407.5" y="74" text-anchor="middle">abstract_len</text><text class="small" x="158" y="331.5" text-anchor="end">abstract_len</text><text class="small" x="502.5" y="74" text-anchor="middle">combined_len</text><text class="small" x="158" y="426.5" text-anchor="end">combined_len</text><rect x="170" y="90" width="95" height="95" fill="#80d4f8" stroke="#ffffff"/><text class="label" x="217.5" y="142.5" text-anchor="middle">1.00</text><rect x="265" y="90" width="95" height="95" fill="#b8d4a7" stroke="#ffffff"/><text class="label" x="312.5" y="142.5" text-anchor="middle">0.05</text><rect x="360" y="90" width="95" height="95" fill="#b5d4ac" stroke="#ffffff"/><text class="label" x="407.5" y="142.5" text-anchor="middle">0.11</text><rect x="455" y="90" width="95" height="95" fill="#afd4b4" stroke="#ffffff"/><text class="label" x="502.5" y="142.5" text-anchor="middle">0.20</text><rect x="170" y="185" width="95" height="95" fill="#b8d4a7" stroke="#ffffff"/><text class="label" x="217.5" y="237.5" text-anchor="middle">0.05</text><rect x="265" y="185" width="95" height="95" fill="#80d4f8" stroke="#ffffff"/><text class="label" x="312.5" y="237.5" text-anchor="middle">1.00</text><rect x="360" y="185" width="95" height="95" fill="#b2d4b1" stroke="#ffffff"/><text class="label" x="407.5" y="237.5" text-anchor="middle">0.17</text><rect x="455" y="185" width="95" height="95" fill="#acd4b8" stroke="#ffffff"/><text class="label" x="502.5" y="237.5" text-anchor="middle">0.26</text><rect x="170" y="280" width="95" height="95" fill="#b5d4ac" stroke="#ffffff"/><text class="label" x="217.5" y="332.5" text-anchor="middle">0.11</text><rect x="265" y="280" width="95" height="95" fill="#b2d4b1" stroke="#ffffff"/><text class="label" x="312.5" y="332.5" text-anchor="middle">0.17</text><rect x="360" y="280" width="95" height="95" fill="#80d4f8" stroke="#ffffff"/><text class="label" x="407.5" y="332.5" text-anchor="middle">1.00</text><rect x="455" y="280" width="95" height="95" fill="#80d4f7" stroke="#ffffff"/><text class="label" x="502.5" y="332.5" text-anchor="middle">0.99</text><rect x="170" y="375" width="95" height="95" fill="#afd4b4" stroke="#ffffff"/><text class="label" x="217.5" y="427.5" text-anchor="middle">0.20</text><rect x="265" y="375" width="95" height="95" fill="#acd4b8" stroke="#ffffff"/><text class="label" x="312.5" y="427.5" text-anchor="middle">0.26</text><rect x="360" y="375" width="95" height="95" fill="#80d4f7" stroke="#ffffff"/><text class="label" x="407.5" y="427.5" text-anchor="middle">0.99</text><rect x="455" y="375" width="95" height="95" fill="#80d4f8" stroke="#ffffff"/><text class="label" x="502.5" y="427.5" text-anchor="middle">1.00</text></svg>