<svg xmlns="http://www.w3.org/2000/svg" width="980" height="560" viewBox="0 0 980 560"><rect width="100%" height="100%" fill="#ffffff"/><style>text{font-family:Arial,"Microsoft YaHei",sans-serif;fill:#1f2937}.small{font-size:12px}.label{font-size:14px}.title{font-size:22px;font-weight:700}</style><text class="title" x="80" y="36">缺失值分布（清洗前）</text><line x1="80" y1="470" x2="940" y2="470" stroke="#374151"/><line x1="80" y1="70" x2="80" y2="470" stroke="#374151"/><text class="small" x="18" y="80">数量</text><rect x="80.0" y="101.4" width="97.0" height="368.6" fill="#2563eb"/><text class="small" x="128.5" y="95.4" text-anchor="middle">10231</text><text class="small" x="128.5" y="494" text-anchor="middle">file_path</text><rect x="189.0" y="442.5" width="97.0" height="27.5" fill="#2563eb"/><text class="small" x="237.5" y="436.5" text-anchor="middle">764</text><text class="small" x="237.5" y="494" text-anchor="middle">author_keywords</text><rect x="298.0" y="366.1" width="97.0" height="103.9" fill="#2563eb"/><text class="small" x="346.5" y="360.1" text-anchor="middle">2883</text><text class="small" x="346.5" y="494" text-anchor="middle">abstract</text><rect x="407.0" y="366.1" width="97.0" height="103.9" fill="#2563eb"/><text class="small" x="455.5" y="360.1" text-anchor="middle">2883</text><text class="small" x="455.5" y="494" text-anchor="middle">abstract_tokens</text><rect x="516.0" y="366.1" width="97.0" height="103.9" fill="#2563eb"/><text class="small" x="564.5" y="360.1" text-anchor="middle">2883</text><text class="small" x="564.5" y="494" text-anchor="middle">abstract_pos</text><rect x="625.0" y="70.3" width="97.0" height="399.7" fill="#2563eb"/><text class="small" x="673.5" y="64.3" text-anchor="middle">11096</text><text class="small" x="673.5" y="494" text-anchor="middle">auto_keywords_a</text><rect x="734.0" y="71.3" width="97.0" height="398.7" fill="#2563eb"/><text class="small" x="782.5" y="65.3" text-anchor="middle">11066</text><text class="small" x="782.5" y="494" text-anchor="middle">auto_keywords_b</text><rect x="843.0" y="70.0" width="97.0" height="400.0" fill="#2563eb"/><text class="small" x="891.5" y="64.0" text-anchor="middle">11103</text><text class="small" x="891.5" y="494" text-anchor="middle">auto_keywords_c</text></svg>