<svg xmlns="http://www.w3.org/2000/svg" width="980" height="560" viewBox="0 0 980 560"><rect width="100%" height="100%" fill="#ffffff"/><style>text{font-family:Arial,"Microsoft YaHei",sans-serif;fill:#1f2937}.small{font-size:12px}.label{font-size:14px}.title{font-size:22px;font-weight:700}</style><text class="title" x="80" y="36">最优模型特征重要性 Top 15</text><line x1="80" y1="470" x2="940" y2="470" stroke="#374151"/><line x1="80" y1="70" x2="80" y2="470" stroke="#374151"/><text class="small" x="18" y="80">重要性</text><rect x="80.0" y="387.6" width="46.1" height="82.4" fill="#2563eb"/><text class="small" x="103.1" y="381.6" text-anchor="middle">0</text><text class="small" x="103.1" y="494" text-anchor="middle">旅游</text><rect x="138.1" y="387.2" width="46.1" height="82.8" fill="#2563eb"/><text class="small" x="161.2" y="381.2" text-anchor="middle">0</text><text class="small" x="161.2" y="494" text-anchor="middle">经济发展</text><rect x="196.3" y="386.8" width="46.1" height="83.2" fill="#2563eb"/><text class="small" x="219.3" y="380.8" text-anchor="middle">1</text><text class="small" x="219.3" y="494" text-anchor="middle">推进</text><rect x="254.4" y="385.4" width="46.1" height="84.6" fill="#2563eb"/><text class="small" x="277.5" y="379.4" text-anchor="middle">1</text><text class="small" x="277.5" y="494" text-anchor="middle">市场</text><rect x="312.5" y="385.1" width="46.1" height="84.9" fill="#2563eb"/><text class="small" x="335.6" y="379.1" text-anchor="middle">1</text><text class="small" x="335.6" y="494" text-anchor="middle">例</text><rect x="370.7" y="384.9" width="46.1" height="85.1" fill="#2563eb"/><text class="small" x="393.7" y="378.9" text-anchor="middle">1</text><text class="small" x="393.7" y="494" text-anchor="middle">农村</text><rect x="428.8" y="383.0" width="46.1" height="87.0" fill="#2563eb"/><text class="small" x="451.9" y="377.0" text-anchor="middle">1</text><text class="small" x="451.9" y="494" text-anchor="middle">政府</text><rect x="486.9" y="382.3" width="46.1" height="87.7" fill="#2563eb"/><text class="small" x="510.0" y="376.3" text-anchor="middle">1</text><text class="small" x="510.0" y="494" text-anchor="middle">经济增长</text><rect x="545.1" y="367.4" width="46.1" height="102.6" fill="#2563eb"/><text class="small" x="568.1" y="361.4" text-anchor="middle">1</text><text class="small" x="568.1" y="494" text-anchor="middle">模型</text><rect x="603.2" y="361.5" width="46.1" height="108.5" fill="#2563eb"/><text class="small" x="626.3" y="355.5" text-anchor="middle">1</text><text class="small" x="626.3" y="494" text-anchor="middle">建设</text><rect x="661.3" y="358.3" width="46.1" height="111.7" fill="#2563eb"/><text class="small" x="684.4" y="352.3" text-anchor="middle">1</text><text class="small" x="684.4" y="494" text-anchor="middle">经济</text><rect x="719.5" y="345.6" width="46.1" height="124.4" fill="#2563eb"/><text class="small" x="742.5" y="339.6" text-anchor="middle">1</text><text class="small" x="742.5" y="494" text-anchor="middle">基础</text><rect x="777.6" y="285.3" width="46.1" height="184.7" fill="#2563eb"/><text class="small" x="800.7" y="279.3" text-anchor="middle">1</text><text class="small" x="800.7" y="494" text-anchor="middle">企业</text><rect x="835.7" y="140.1" width="46.1" height="329.9" fill="#2563eb"/><text class="small" x="858.8" y="134.1" text-anchor="middle">2</text><text class="small" x="858.8" y="494" text-anchor="middle">我国</text><rect x="893.9" y="70.0" width="46.1" height="400.0" fill="#2563eb"/><text class="small" x="916.9" y="64.0" text-anchor="middle">2</text><text class="small" x="916.9" y="494" text-anchor="middle">中国</text></svg>