<svg xmlns="http://www.w3.org/2000/svg" width="760" height="620" viewBox="0 0 760 620"><rect width="100%" height="100%" fill="#ffffff"/><style>text{font-family:Arial,"Microsoft YaHei",sans-serif;fill:#1f2937}.small{font-size:12px}.label{font-size:14px}.title{font-size:22px;font-weight:700}</style><text class="title" x="90" y="36">最优模型 ROC 曲线（一对多）</text><rect x="90" y="70" width="480" height="480" fill="#f8fafc" stroke="#374151"/><line x1="90" y1="550" x2="570" y2="70" stroke="#9ca3af" stroke-dasharray="4 4"/><polyline points="90.0,550.0 92.3,484.2 95.3,444.8 98.6,418.5 101.9,392.2 105.4,372.5 109.0,359.3 112.4,333.0 116.0,319.9 120.0,319.9 123.6,306.7 127.6,306.7 131.6,306.7 135.5,306.7 139.2,293.6 142.8,280.4 146.8,280.4 150.5,267.3 154.1,254.1 157.6,234.4 161.4,227.8 165.2,221.2 169.2,221.2 173.0,214.7 177.0,214.7 180.9,214.7 184.7,208.1 188.7,208.1 192.5,201.5 196.5,201.5 200.3,194.9 204.1,188.4 208.1,188.4 212.1,188.4 216.0,188.4 220.0,188.4 223.8,181.8 227.8,181.8 231.8,181.8 235.4,168.6 239.4,168.6 243.4,168.6 247.2,162.1 251.2,162.1 255.0,155.5 258.6,142.3 262.6,142.3 266.6,142.3 270.5,142.3 274.5,142.3 278.5,142.3 282.5,142.3 286.4,142.3 290.4,142.3 294.4,142.3 298.4,142.3 302.3,142.3 306.3,142.3 310.3,142.3 314.3,142.3 318.2,142.3 322.2,142.3 326.2,142.3 330.2,142.3 334.0,135.8 338.0,135.8 341.9,135.8 345.7,129.2 349.7,129.2 353.4,116.0 357.3,116.0 361.1,109.5 365.1,109.5 369.1,109.5 372.9,102.9 376.9,102.9 380.7,96.3 384.7,96.3 388.6,96.3 392.6,96.3 396.6,96.3 400.6,96.3 404.5,96.3 408.5,96.3 412.5,96.3 416.5,96.3 420.3,89.7 424.2,89.7 428.2,89.7 432.2,89.7 436.2,89.7 440.1,89.7 444.1,89.7 448.1,89.7 452.1,89.7 456.0,89.7 460.0,89.7 464.0,89.7 468.0,89.7 471.9,89.7 475.9,89.7 479.9,89.7 483.9,89.7 487.8,89.7 491.8,89.7 495.8,89.7 499.8,89.7 503.7,89.7 507.7,89.7 511.7,89.7 515.5,83.2 519.5,83.2 523.5,83.2 527.4,83.2 531.4,83.2 535.4,83.2 539.4,83.2 543.3,83.2 547.1,76.6 551.1,76.6 555.1,76.6 559.1,76.6 562.9,70.0 566.9,70.0 570.0,70.0" fill="none" stroke="#2563eb" stroke-width="2"/><rect x="610" y="70" width="14" height="14" fill="#2563eb"/><text class="small" x="632" y="82">F0 AUC=0.822</text><polyline points="90.0,550.0 91.8,532.1 94.1,516.8 96.7,504.0 100.0,496.4 102.0,479.8 105.2,470.9 107.8,458.1 111.1,450.4 114.8,445.3 117.4,432.6 120.7,424.9 123.7,414.7 127.0,407.0 130.1,398.1 133.5,390.4 136.8,382.8 139.2,368.7 142.3,359.8 145.3,349.6 149.2,345.7 152.2,335.5 155.5,327.9 159.5,325.3 163.1,318.9 166.8,313.8 170.5,308.7 174.3,304.9 177.7,297.2 181.6,293.4 184.7,284.5 188.4,279.4 192.1,274.3 196.0,270.4 199.7,265.3 203.4,260.2 207.1,255.1 211.0,251.3 214.5,244.9 218.0,238.5 221.7,233.4 225.2,227.0 229.5,225.7 233.5,223.2 237.6,220.6 241.3,215.5 245.7,215.5 249.8,213.0 253.7,209.1 257.2,202.8 261.3,200.2 265.2,196.4 269.4,195.1 273.3,191.3 276.6,183.6 280.5,179.8 284.8,178.5 288.8,176.0 292.5,170.9 296.6,168.3 300.9,167.0 304.9,164.5 308.6,159.4 312.7,156.8 316.8,154.3 320.7,150.4 324.5,146.6 328.6,144.0 332.9,142.8 337.1,141.5 341.0,137.7 345.4,137.7 349.5,135.1 353.6,132.6 357.3,127.4 361.7,127.4 366.0,126.2 370.0,123.6 374.3,122.3 378.7,122.3 383.2,122.3 387.1,118.5 391.1,116.0 395.0,112.1 399.3,110.9 403.5,109.6 408.0,109.6 412.4,109.6 416.7,108.3 420.9,107.0 425.2,105.7 429.1,101.9 433.1,99.4 437.2,96.8 441.4,95.5 445.7,94.3 449.8,91.7 454.2,91.7 458.5,90.4 462.9,90.4 467.0,87.9 471.2,86.6 475.5,85.3 479.7,84.0 484.2,84.0 488.6,84.0 492.9,82.8 496.9,80.2 501.4,80.2 505.8,80.2 510.1,78.9 514.3,77.7 518.6,76.4 522.8,75.1 527.1,73.8 531.5,73.8 536.0,73.8 540.4,73.8 544.5,71.3 548.9,71.3 553.4,71.3 557.8,71.3 562.2,71.3 566.7,71.3 570.0,70.0" fill="none" stroke="#dc2626" stroke-width="2"/><rect x="610" y="96" width="14" height="14" fill="#dc2626"/><text class="small" x="632" y="108">F1 AUC=0.755</text><polyline points="90.0,550.0 91.1,538.0 92.4,526.5 93.7,515.1 95.4,505.0 96.9,494.2 100.0,487.9 101.7,477.7 103.4,467.6 106.9,462.5 109.5,454.9 111.9,446.6 114.5,439.0 116.7,430.2 118.8,421.3 122.1,415.6 124.9,408.6 127.5,401.0 130.3,394.0 133.8,388.9 137.3,383.9 140.3,377.5 143.6,371.8 146.4,364.8 149.6,359.1 152.4,352.2 156.1,347.7 160.0,343.9 163.1,337.6 166.7,333.1 169.8,326.8 173.7,323.0 176.7,316.7 180.4,312.2 184.5,309.0 188.6,305.9 192.8,302.7 196.7,298.9 200.1,293.8 203.8,289.4 207.3,284.3 210.8,279.2 214.0,273.5 217.3,267.8 221.4,264.7 225.1,260.2 229.8,259.0 234.0,255.8 237.9,252.0 241.5,247.5 245.9,245.0 250.4,243.1 254.1,238.7 257.8,234.2 261.9,231.1 265.4,226.0 268.6,220.3 272.3,215.8 276.4,212.7 280.4,208.9 284.3,205.1 287.9,200.6 292.1,197.5 296.0,193.6 300.3,191.1 303.8,186.0 308.1,183.5 312.7,181.6 317.2,179.7 322.2,179.1 326.3,175.9 331.1,174.6 335.0,170.8 339.1,167.6 343.9,166.4 348.0,163.2 352.1,160.0 356.2,156.9 360.1,153.1 364.0,149.3 368.4,146.7 372.5,143.6 376.8,141.0 380.9,137.8 384.6,133.4 389.4,132.1 394.2,130.9 398.7,129.0 402.4,124.5 407.4,123.9 412.2,122.6 416.9,121.4 421.7,120.1 426.3,118.2 431.0,116.9 435.8,115.7 440.6,114.4 445.3,113.1 449.7,110.6 454.4,109.3 459.0,107.4 463.3,104.9 468.1,103.6 473.1,103.0 477.9,101.7 482.8,101.1 487.2,98.5 491.3,95.4 495.4,92.2 500.2,90.9 505.0,89.7 509.7,88.4 514.7,87.8 519.7,87.1 524.5,85.9 529.0,83.9 533.8,82.7 538.8,82.0 542.9,78.9 547.5,77.0 551.6,73.8 556.3,72.5 561.1,71.3 565.9,70.0 570.0,70.0" fill="none" stroke="#16a34a" stroke-width="2"/><rect x="610" y="122" width="14" height="14" fill="#16a34a"/><text class="small" x="632" y="134">F2 AUC=0.718</text><polyline points="90.0,550.0 91.6,525.3 93.0,499.0 94.8,476.0 96.5,451.4 98.8,433.3 100.9,413.6 103.6,398.8 105.6,377.4 109.5,374.1 112.2,359.3 115.6,351.1 118.3,336.3 121.5,326.4 124.9,318.2 128.2,308.4 130.9,293.6 134.3,285.3 138.0,280.4 141.8,275.5 145.7,272.2 148.9,262.3 152.7,257.4 156.3,250.8 159.7,242.6 162.9,232.7 167.0,231.1 170.4,222.9 173.9,214.7 177.8,211.4 181.9,209.7 185.9,206.4 190.0,204.8 193.6,198.2 197.1,191.6 201.3,190.0 205.0,185.1 208.8,180.1 212.7,176.8 216.7,173.6 221.0,173.6 224.6,167.0 228.5,163.7 232.4,160.4 236.0,153.8 239.8,148.9 243.9,147.3 248.2,147.3 252.2,144.0 256.3,142.3 260.2,139.0 264.3,137.4 268.3,134.1 272.0,129.2 276.0,125.9 279.9,122.6 283.9,119.3 288.0,117.7 292.1,116.0 296.4,116.0 300.2,111.1 304.5,111.1 308.8,111.1 313.1,111.1 317.2,109.5 321.3,107.8 325.4,106.2 329.6,104.5 333.9,104.5 338.0,102.9 342.3,102.9 346.6,102.9 350.9,102.9 355.0,101.2 359.3,101.2 363.6,101.2 367.5,97.9 371.3,93.0 375.6,93.0 379.9,93.0 384.0,91.4 388.3,91.4 392.6,91.4 396.7,89.7 401.0,89.7 405.2,88.1 409.5,88.1 413.8,88.1 417.9,86.4 422.2,86.4 426.3,84.8 430.6,84.8 434.7,83.2 439.0,83.2 443.1,81.5 447.4,81.5 451.7,81.5 456.0,81.5 460.3,81.5 464.6,81.5 468.9,81.5 473.2,81.5 477.4,79.9 481.5,78.2 485.6,76.6 489.9,76.6 494.2,76.6 498.5,76.6 502.8,76.6 507.1,76.6 511.4,76.6 515.5,74.9 519.8,74.9 524.0,73.3 528.3,73.3 532.6,73.3 536.7,71.6 541.0,71.6 545.3,71.6 549.6,71.6 553.7,70.0 558.0,70.0 562.3,70.0 566.6,70.0 570.0,70.0" fill="none" stroke="#9333ea" stroke-width="2"/><rect x="610" y="148" width="14" height="14" fill="#9333ea"/><text class="small" x="632" y="160">F3 AUC=0.842</text><polyline points="90.0,550.0 93.6,542.9 96.9,533.9 99.9,521.4 102.4,503.6 105.6,492.9 109.0,484.0 112.4,475.1 115.6,464.3 119.1,457.2 122.0,442.9 125.7,437.6 129.4,432.2 132.5,419.7 136.2,414.4 139.9,409.0 143.1,398.3 146.5,389.4 150.4,385.8 154.0,378.7 157.2,368.0 160.7,360.9 164.6,357.3 168.3,351.9 172.3,348.4 176.3,346.6 180.1,341.2 184.2,339.4 187.4,328.7 191.1,323.4 194.8,318.0 198.7,314.5 202.5,309.1 206.4,305.5 210.4,303.8 214.2,298.4 217.7,291.3 221.3,284.1 225.4,282.3 229.3,278.8 233.0,273.4 236.6,266.3 240.1,259.1 243.7,252.0 247.7,250.2 252.0,250.2 255.6,243.1 259.1,235.9 263.2,234.2 267.1,230.6 271.2,228.8 275.3,227.0 279.2,223.5 283.3,221.7 287.4,219.9 291.3,216.3 295.2,212.8 299.3,211.0 303.5,211.0 307.8,211.0 311.7,207.4 315.3,200.3 319.2,196.7 323.2,194.9 327.3,193.1 331.4,191.3 335.5,189.6 339.2,184.2 343.1,180.6 347.2,178.8 351.3,177.1 355.4,175.3 359.3,171.7 363.6,171.7 367.8,171.7 372.1,171.7 376.2,169.9 380.3,168.1 384.2,164.6 387.9,159.2 392.0,157.4 395.7,152.1 399.8,150.3 404.1,150.3 408.0,146.7 411.9,143.2 416.0,141.4 420.1,139.6 424.0,136.0 427.9,132.5 432.1,132.5 436.4,132.5 440.3,128.9 444.4,127.1 448.3,123.5 452.6,123.5 456.7,121.7 460.7,120.0 464.8,118.2 468.9,116.4 473.2,116.4 476.9,111.0 481.0,109.3 484.9,105.7 489.2,105.7 493.3,103.9 497.2,100.3 501.4,100.3 505.7,100.3 509.8,98.6 513.9,96.8 517.6,91.4 521.9,91.4 525.9,89.6 529.9,86.1 534.1,86.1 538.2,84.3 542.5,84.3 546.6,82.5 550.8,82.5 555.1,82.5 559.2,80.7 563.4,80.7 567.0,73.6 570.0,70.0" fill="none" stroke="#ea580c" stroke-width="2"/><rect x="610" y="174" width="14" height="14" fill="#ea580c"/><text class="small" x="632" y="186">F4 AUC=0.682</text><polyline points="90.0,550.0 90.2,483.5 90.7,422.8 91.9,373.6 94.4,347.6 96.7,315.8 98.9,284.0 101.6,260.8 104.7,243.5 108.1,231.9 112.1,229.0 115.5,217.5 118.9,205.9 122.7,200.1 126.8,200.1 130.2,188.6 133.6,177.0 137.4,171.2 140.8,159.6 144.6,153.9 148.7,153.9 152.6,151.0 156.7,151.0 160.7,148.1 164.6,145.2 168.7,145.2 172.8,145.2 176.9,145.2 181.0,145.2 185.1,145.2 188.7,136.5 192.7,133.6 196.4,127.8 200.4,124.9 204.5,124.9 208.4,122.0 212.5,122.0 216.6,122.0 220.7,122.0 224.8,122.0 229.0,122.0 233.1,122.0 237.0,119.2 240.9,116.3 244.9,113.4 249.0,113.4 253.1,113.4 257.2,113.4 261.3,113.4 265.4,113.4 269.5,113.4 273.4,110.5 277.6,110.5 281.5,107.6 285.6,107.6 289.7,107.6 293.8,107.6 297.9,107.6 302.0,107.6 306.1,107.6 310.2,107.6 314.3,107.6 318.4,107.6 322.4,104.7 326.5,104.7 330.6,104.7 334.7,104.7 338.8,104.7 342.9,104.7 346.7,98.9 350.8,98.9 354.9,98.9 359.0,98.9 363.1,98.9 367.2,98.9 371.3,98.9 375.4,98.9 379.5,98.9 383.5,96.0 387.6,96.0 391.7,96.0 395.8,96.0 399.7,93.1 403.8,93.1 407.9,93.1 411.9,90.2 416.0,90.2 420.1,90.2 424.2,90.2 428.3,90.2 432.2,87.3 436.4,87.3 440.5,87.3 444.4,84.5 448.5,84.5 452.4,81.6 456.5,81.6 460.7,81.6 464.8,81.6 468.9,81.6 473.0,81.6 477.1,81.6 481.2,81.6 485.3,81.6 489.4,81.6 493.5,81.6 497.6,81.6 501.7,81.6 505.7,78.7 509.8,78.7 513.9,78.7 518.0,78.7 522.1,78.7 526.2,78.7 530.1,75.8 534.2,75.8 538.3,75.8 542.4,75.8 546.6,75.8 550.5,72.9 554.4,70.0 558.5,70.0 562.6,70.0 566.7,70.0 570.0,70.0" fill="none" stroke="#0891b2" stroke-width="2"/><rect x="610" y="200" width="14" height="14" fill="#0891b2"/><text class="small" x="632" y="212">F5 AUC=0.903</text><polyline points="90.0,550.0 92.1,220.0 95.8,190.0 99.7,190.0 103.6,190.0 107.4,160.0 111.3,160.0 115.2,160.0 119.1,160.0 123.0,160.0 126.9,160.0 130.8,160.0 134.7,160.0 138.6,160.0 142.5,160.0 146.4,160.0 150.3,160.0 154.2,160.0 158.1,160.0 162.0,160.0 165.9,160.0 169.8,160.0 173.7,160.0 177.4,130.0 181.3,130.0 185.2,130.0 189.1,130.0 193.0,130.0 196.9,130.0 200.8,130.0 204.7,130.0 208.6,130.0 212.5,130.0 216.4,130.0 220.3,130.0 224.2,130.0 228.1,130.0 232.0,130.0 235.9,130.0 239.8,130.0 243.7,130.0 247.6,130.0 251.5,130.0 255.4,130.0 259.3,130.0 263.2,130.0 267.1,130.0 271.0,130.0 274.9,130.0 278.8,130.0 282.6,130.0 286.5,130.0 290.4,130.0 294.3,130.0 298.2,130.0 302.1,130.0 306.0,130.0 309.9,130.0 313.8,130.0 317.7,130.0 321.6,130.0 325.5,130.0 329.4,130.0 333.3,130.0 337.2,130.0 341.1,130.0 345.0,130.0 348.9,130.0 352.8,130.0 356.7,130.0 360.6,130.0 364.5,130.0 368.4,130.0 372.3,130.0 376.2,130.0 380.1,130.0 384.0,130.0 387.9,130.0 391.8,130.0 395.7,130.0 399.6,130.0 403.5,130.0 407.4,130.0 411.3,130.0 415.2,130.0 419.1,130.0 423.0,130.0 426.7,100.0 430.6,100.0 434.5,100.0 438.4,100.0 442.3,100.0 446.2,100.0 450.1,100.0 454.0,100.0 457.9,100.0 461.8,100.0 465.7,100.0 469.6,100.0 473.5,100.0 477.4,100.0 481.3,100.0 485.2,100.0 489.1,100.0 493.0,100.0 496.9,100.0 500.8,100.0 504.7,100.0 508.6,100.0 512.5,100.0 516.4,100.0 520.3,100.0 524.2,100.0 528.1,100.0 532.0,100.0 535.9,100.0 539.8,100.0 543.7,100.0 547.6,100.0 551.5,100.0 555.2,70.0 559.1,70.0 563.0,70.0 566.9,70.0 570.0,70.0" fill="none" stroke="#4f46e5" stroke-width="2"/><rect x="610" y="226" width="14" height="14" fill="#4f46e5"/><text class="small" x="632" y="238">F6 AUC=0.882</text><polyline points="90.0,550.0 92.7,534.6 95.2,517.4 97.8,502.0 100.7,488.3 103.4,472.9 105.9,455.7 109.1,445.4 112.1,433.4 115.3,423.1 118.4,411.1 121.4,399.1 124.6,388.9 127.8,378.6 131.6,373.4 134.8,363.1 138.5,358.0 142.3,352.9 145.5,342.6 149.2,337.4 152.4,327.1 155.8,318.6 159.7,315.1 163.5,310.0 167.1,303.1 170.8,298.0 174.4,291.1 178.3,287.7 181.3,275.7 185.1,270.6 188.8,265.4 192.7,262.0 196.5,256.9 200.6,255.1 204.5,251.7 208.4,248.3 211.8,239.7 215.8,236.3 219.5,231.1 223.4,227.7 227.5,226.0 231.3,220.9 235.4,219.1 239.5,217.4 243.6,215.7 247.9,215.7 251.6,210.6 255.4,205.4 259.1,200.3 262.5,191.7 266.4,188.3 270.5,186.6 274.4,183.1 278.4,179.7 282.5,178.0 286.6,176.3 290.7,174.6 294.2,167.7 298.2,164.3 302.1,160.9 306.2,159.1 310.5,159.1 314.6,157.4 318.5,154.0 322.4,150.6 326.7,150.6 330.6,147.1 334.9,147.1 338.7,142.0 342.8,140.3 346.7,136.9 350.8,135.1 355.1,135.1 359.3,135.1 363.4,133.4 367.7,133.4 371.8,131.7 375.9,130.0 379.9,126.6 383.6,121.4 387.9,121.4 392.2,121.4 396.3,119.7 400.4,118.0 404.6,118.0 408.6,114.6 412.7,112.9 416.8,111.1 420.7,107.7 425.0,107.7 429.1,106.0 433.4,106.0 437.5,104.3 441.8,104.3 445.5,99.1 449.8,99.1 453.7,95.7 457.8,94.0 462.1,94.0 466.0,90.6 470.3,90.6 474.6,90.6 478.9,90.6 483.0,88.9 487.1,87.1 491.3,87.1 495.6,87.1 499.7,85.4 503.5,80.3 507.6,78.6 511.9,78.6 516.0,76.9 520.1,75.1 524.2,73.4 528.3,71.7 532.5,71.7 536.8,71.7 541.1,71.7 545.4,71.7 549.7,71.7 553.9,71.7 558.2,71.7 562.5,71.7 566.8,71.7 570.0,70.0" fill="none" stroke="#be123c" stroke-width="2"/><rect x="610" y="252" width="14" height="14" fill="#be123c"/><text class="small" x="632" y="264">F7 AUC=0.758</text><polyline points="90.0,550.0 92.2,540.9 94.5,532.5 96.9,524.1 99.0,515.1 100.8,504.7 102.9,495.7 105.3,487.3 107.4,478.2 109.2,467.8 112.4,462.0 115.0,454.3 117.8,447.1 120.4,439.4 122.5,430.3 125.7,424.5 129.2,419.3 132.6,414.2 135.9,408.3 139.1,402.5 141.9,395.4 144.7,388.3 147.3,380.5 150.1,373.4 152.9,366.3 156.1,360.5 159.8,355.9 163.2,350.8 166.4,344.9 169.5,338.5 173.8,335.9 177.0,330.1 180.2,324.2 183.7,319.1 186.9,313.2 189.9,306.8 193.6,302.2 197.0,297.1 200.0,290.6 203.5,285.4 207.8,282.8 211.5,278.3 215.1,273.8 218.8,269.2 222.0,263.4 225.7,258.9 230.0,256.3 233.6,251.8 237.5,247.9 240.3,240.8 243.8,235.6 247.4,231.1 250.4,224.6 254.3,220.7 257.8,215.6 261.6,211.7 264.6,205.2 268.7,202.0 271.5,194.9 274.8,189.0 279.5,187.7 284.0,185.8 288.5,183.9 292.9,181.3 296.9,178.0 301.0,174.8 304.7,170.3 308.6,166.4 312.9,163.8 316.5,159.3 321.1,157.3 325.4,154.7 329.5,151.5 333.8,148.9 338.3,147.0 342.4,143.7 346.0,139.2 350.6,137.3 355.3,136.0 359.6,133.4 363.9,130.8 368.2,128.2 372.7,126.3 376.6,122.4 380.9,119.8 385.0,116.6 390.0,115.9 395.1,115.9 399.7,114.0 404.4,112.7 408.9,110.8 413.9,110.1 418.6,108.8 423.4,107.5 428.3,106.9 433.0,105.6 438.0,104.9 443.2,104.9 447.3,101.7 452.4,101.7 457.4,101.1 462.1,99.8 467.1,99.1 471.8,97.8 476.3,95.9 481.3,95.2 485.6,92.6 490.3,91.3 495.5,91.3 500.4,90.7 505.4,90.1 509.9,88.1 514.2,85.5 519.2,84.9 523.5,82.3 528.4,81.6 533.2,80.4 538.1,79.7 542.7,77.8 547.4,76.5 551.7,73.9 556.6,73.2 561.2,71.3 565.9,70.0 570.0,70.0" fill="none" stroke="#65a30d" stroke-width="2"/><rect x="610" y="278" width="14" height="14" fill="#65a30d"/><text class="small" x="632" y="290">F8 AUC=0.728</text><text class="small" x="330.0" y="590" text-anchor="middle">False Positive Rate</text><text class="small" x="42" y="310.0" transform="rotate(-90 42,310.0)" text-anchor="middle">True Positive Rate</text></svg>